<svg width="514" height="513" xmlns="http://www.w3.org/2000/svg" xmlns:xlink="http://www.w3.org/1999/xlink" xml:space="preserve" overflow="hidden"><g transform="translate(-1223 -449)"><g><path d="M1226 508.458C1226 477.829 1250.83 453 1281.46 453L1679.54 453C1710.17 453 1735 477.829 1735 508.458L1735 903.542C1735 934.171 1710.17 959 1679.54 959L1281.46 959C1250.83 959 1226 934.171 1226 903.542Z" fill="#4E3C4D" fill-rule="evenodd" fill-opacity="1"/><path d="M1281.49 453 1677 453 1677 792.906C1677 855.918 1625.85 907 1562.76 907L1226.76 907 1226 903.234 1226 508.419C1226 477.812 1250.84 453 1281.49 453Z" fill="#61525F" fill-rule="evenodd" fill-opacity="1"/><path d="M1499 768C1499 783.464 1486.46 796 1471 796L1471 796C1455.54 796 1443 783.464 1443 768L1443 569C1443 553.536 1455.54 541 1471 541L1471 541C1486.46 541 1499 553.536 1499 569Z" fill="#FFFFFF" fill-rule="evenodd" fill-opacity="1"/><path d="M1484.32 775.403C1494.76 786.512 1494.22 803.982 1483.11 814.423L1483.11 814.423C1472 824.864 1454.53 824.323 1444.09 813.214L1368.31 732.596C1357.87 721.487 1358.41 704.017 1369.52 693.576L1369.52 693.576C1380.63 683.135 1398.1 683.676 1408.54 694.785Z" fill="#FFFFFF" fill-rule="evenodd" fill-opacity="1"/><path d="M1488.04 817.868C1477.17 828.559 1459.69 828.414 1449 817.545L1449 817.545C1438.31 806.675 1438.45 789.198 1449.32 778.507L1534.48 694.746C1545.35 684.056 1562.83 684.201 1573.52 695.07 1584.21 705.939 1584.07 723.417 1573.2 734.107Z" fill="#FFFFFF" fill-rule="evenodd" fill-opacity="1"/></g></g></svg>