<svg width="514" height="513" xmlns="http://www.w3.org/2000/svg" xmlns:xlink="http://www.w3.org/1999/xlink" xml:space="preserve" overflow="hidden"><g transform="translate(-1223 -449)"><g><path d="M1226 508.458C1226 477.829 1250.83 453 1281.46 453L1679.54 453C1710.17 453 1735 477.829 1735 508.458L1735 903.542C1735 934.171 1710.17 959 1679.54 959L1281.46 959C1250.83 959 1226 934.171 1226 903.542Z" fill="#4E3C4D" fill-rule="evenodd" fill-opacity="1"/><path d="M1281.49 453 1677 453 1677 792.906C1677 855.918 1625.85 907 1562.76 907L1226.76 907 1226 903.234 1226 508.419C1226 477.812 1250.84 453 1281.49 453Z" fill="#61525F" fill-rule="evenodd" fill-opacity="1"/></g></g></svg>