<svg width="514" height="513" xmlns="http://www.w3.org/2000/svg" xmlns:xlink="http://www.w3.org/1999/xlink" xml:space="preserve" overflow="hidden"><g transform="translate(-1223 -449)"><g><path d="M1226 508.458C1226 477.829 1250.83 453 1281.46 453L1679.54 453C1710.17 453 1735 477.829 1735 508.458L1735 903.542C1735 934.171 1710.17 959 1679.54 959L1281.46 959C1250.83 959 1226 934.171 1226 903.542Z" fill="#4E3C4D" fill-rule="evenodd" fill-opacity="1"/><path d="M1281.49 453 1677 453 1677 792.906C1677 855.918 1625.85 907 1562.76 907L1226.76 907 1226 903.234 1226 508.419C1226 477.812 1250.84 453 1281.49 453Z" fill="#61525F" fill-rule="evenodd" fill-opacity="1"/><path d="M1546.5 667C1561.69 667 1574 679.312 1574 694.5L1574 694.5C1574 709.688 1561.69 722 1546.5 722L1347.5 722C1332.31 722 1320 709.688 1320 694.5L1320 694.5C1320 679.312 1332.31 667 1347.5 667Z" fill="#FFFFFF" fill-rule="evenodd" fill-opacity="1"/><path d="M1554.12 681.078C1565.22 670.637 1582.69 671.178 1593.14 682.287L1593.14 682.287C1603.58 693.396 1603.04 710.866 1591.93 721.307L1511.31 797.081C1500.2 807.522 1482.73 806.981 1472.29 795.872L1472.29 795.872C1461.85 784.763 1462.39 767.293 1473.5 756.852Z" fill="#FFFFFF" fill-rule="evenodd" fill-opacity="1"/><path d="M1596.58 677.356C1607.27 688.225 1607.13 705.703 1596.26 716.393L1596.26 716.393C1585.39 727.084 1567.91 726.939 1557.22 716.07L1473.46 630.909C1462.77 620.04 1462.91 602.562 1473.78 591.872 1484.65 581.181 1502.13 581.326 1512.82 592.195Z" fill="#FFFFFF" fill-rule="evenodd" fill-opacity="1"/></g></g></svg>