<svg width="514" height="513" xmlns="http://www.w3.org/2000/svg" xmlns:xlink="http://www.w3.org/1999/xlink" xml:space="preserve" overflow="hidden"><g transform="translate(-1223 -449)"><g><path d="M1226 508.458C1226 477.829 1250.83 453 1281.46 453L1679.54 453C1710.17 453 1735 477.829 1735 508.458L1735 903.542C1735 934.171 1710.17 959 1679.54 959L1281.46 959C1250.83 959 1226 934.171 1226 903.542Z" fill="#4E3C4D" fill-rule="evenodd" fill-opacity="1"/><path d="M1281.49 453 1677 453 1677 792.906C1677 855.918 1625.85 907 1562.76 907L1226.76 907 1226 903.234 1226 508.419C1226 477.812 1250.84 453 1281.49 453Z" fill="#61525F" fill-rule="evenodd" fill-opacity="1"/><path d="M1327 716.334C1327 710.627 1331.63 706 1337.33 706L1378.67 706C1384.37 706 1389 710.627 1389 716.334L1389 823.666C1389 829.373 1384.37 834 1378.67 834L1337.33 834C1331.63 834 1327 829.373 1327 823.666Z" fill="#FFFFFF" fill-rule="evenodd" fill-opacity="1"/><path d="M1556 716.334C1556 710.627 1560.63 706 1566.33 706L1607.67 706C1613.37 706 1618 710.627 1618 716.334L1618 823.666C1618 829.373 1613.37 834 1607.67 834L1566.33 834C1560.63 834 1556 829.373 1556 823.666Z" fill="#FFFFFF" fill-rule="evenodd" fill-opacity="1"/><path d="M1607.67 772C1613.37 772 1618 776.627 1618 782.334L1618 823.667C1618 829.374 1613.37 834 1607.67 834L1337.33 834C1331.63 834 1327 829.374 1327 823.667L1327 782.334C1327 776.627 1331.63 772 1337.33 772Z" fill="#FFFFFF" fill-rule="evenodd" fill-opacity="1"/></g></g></svg>