<svg width="514" height="513" xmlns="http://www.w3.org/2000/svg" xmlns:xlink="http://www.w3.org/1999/xlink" xml:space="preserve" overflow="hidden"><g transform="translate(-1223 -449)"><g><path d="M1226 508.458C1226 477.829 1250.83 453 1281.46 453L1679.54 453C1710.17 453 1735 477.829 1735 508.458L1735 903.542C1735 934.171 1710.17 959 1679.54 959L1281.46 959C1250.83 959 1226 934.171 1226 903.542Z" fill="#4E3C4D" fill-rule="evenodd" fill-opacity="1"/><path d="M1281.49 453 1677 453 1677 792.906C1677 855.918 1625.85 907 1562.76 907L1226.76 907 1226 903.234 1226 508.419C1226 477.812 1250.84 453 1281.49 453Z" fill="#61525F" fill-rule="evenodd" fill-opacity="1"/><path d="M1435 624C1435 608.536 1447.54 596 1463 596L1463 596C1478.46 596 1491 608.536 1491 624L1491 823C1491 838.464 1478.46 851 1463 851 1447.54 851 1435 838.464 1435 823Z" fill="#FFFFFF" fill-rule="evenodd" fill-opacity="1"/><path d="M1449.59 616.097C1439.15 604.988 1439.69 587.518 1450.8 577.077L1450.8 577.077C1461.91 566.635 1479.38 567.176 1489.82 578.285L1565.59 658.904C1576.03 670.013 1575.49 687.482 1564.38 697.924L1564.38 697.924C1553.28 708.365 1535.81 707.824 1525.36 696.715Z" fill="#FFFFFF" fill-rule="evenodd" fill-opacity="1"/><path d="M1445.87 573.628C1456.74 562.94 1474.21 563.084 1484.9 573.951L1484.9 573.951C1495.59 584.818 1495.44 602.292 1484.58 612.98L1399.8 696.367C1388.93 707.055 1371.46 706.91 1360.77 696.043L1360.77 696.043C1350.08 685.177 1350.22 667.703 1361.09 657.015Z" fill="#FFFFFF" fill-rule="evenodd" fill-opacity="1"/></g></g></svg>